<svg xmlns="http://www.w3.org/2000/svg" xmlns:xlink="http://www.w3.org/1999/xlink" xml:space="preserve" version="1.1" style="shape-rendering:geometricPrecision;text-rendering:geometricPrecision;image-rendering:optimizeQuality;" viewBox="0 0 333 416.25" x="0px" y="0px" fill-rule="evenodd" clip-rule="evenodd"><defs><style type="text/css">
   
    .fil0 {fill:black}
   
  </style></defs><g><path class="fil0" d="M98 154l27 -26 4 -3 7 -22 28 -22 18 14 22 42 28 30 9 -1 76 87 -300 0 72 -102 9 3zm118 90l-7 -19 -30 1 23 -22 -20 -10 -21 1 -7 -7 -20 9 18 -23 12 -13 -13 -1 -14 -9 2 -11 12 -1 3 -11 12 -11 -12 2 2 -11 9 -7 -2 -9 -20 16 -7 23 -6 4 -29 29 -9 -3 -59 83 183 0z"/></g></svg>